<svg width="32" height="23" viewBox="0 0 32 23" fill="none" xmlns="http://www.w3.org/2000/svg">
<path d="M28 0H4C2.93913 0 1.92172 0.421424 1.17157 1.17157C0.421424 1.92172 0 2.93913 0 4V19C0 20.0609 0.421424 21.0783 1.17157 21.8284C1.92172 22.5786 2.93913 23 4 23H28C29.0609 23 30.0783 22.5786 30.8284 21.8284C31.5786 21.0783 32 20.0609 32 19V4C32 2.93913 31.5786 1.92172 30.8284 1.17157C30.0783 0.421424 29.0609 0 28 0ZM9.7 14.71L5.7 18.71C5.50493 18.8444 5.26848 18.9052 5.03276 18.8816C4.79704 18.858 4.57736 18.7514 4.41287 18.5809C4.24839 18.4104 4.14978 18.1871 4.1346 17.9507C4.11942 17.7142 4.18867 17.4801 4.33 17.29L8.33 13.29C8.51736 13.1038 8.77082 12.9992 9.035 12.9992C9.29919 12.9992 9.55264 13.1038 9.74001 13.29C9.83116 13.3856 9.90248 13.4983 9.94984 13.6216C9.99721 13.7448 10.0197 13.8763 10.016 14.0083C10.0122 14.1404 9.98241 14.2703 9.92818 14.3908C9.87395 14.5112 9.79639 14.6197 9.7 14.71ZM16 16C15.7663 16.0005 15.5399 15.9191 15.36 15.77L4.36 6.76999C4.24944 6.68983 4.15646 6.58787 4.08681 6.4704C4.01716 6.35293 3.97231 6.22244 3.95502 6.08698C3.93773 5.95151 3.94838 5.81394 3.9863 5.68274C4.02421 5.55154 4.08859 5.42952 4.17548 5.32416C4.26236 5.2188 4.36991 5.13236 4.49149 5.07016C4.61306 5.00796 4.74609 4.97132 4.88237 4.96249C5.01865 4.95367 5.15529 4.97285 5.28387 5.01886C5.41246 5.06487 5.53026 5.13673 5.63 5.23001L16 13.71L26.33 5.23001C26.4317 5.14638 26.5488 5.08365 26.6748 5.04541C26.8008 5.00717 26.9331 4.99416 27.0641 5.00717C27.1951 5.02018 27.3222 5.05892 27.4382 5.12119C27.5542 5.18345 27.6568 5.268 27.74 5.37C27.9058 5.57474 27.9841 5.83664 27.9579 6.09879C27.9316 6.36093 27.8031 6.60213 27.6 6.76999L16.6 15.77C16.4308 15.9106 16.2199 15.9914 16 16ZM27.7 18.71C27.5126 18.8962 27.2592 19.0008 26.995 19.0008C26.7308 19.0008 26.4774 18.8962 26.29 18.71L22.29 14.71C22.1963 14.617 22.1219 14.5064 22.0711 14.3846C22.0203 14.2627 21.9942 14.132 21.9942 14C21.9942 13.868 22.0203 13.7373 22.0711 13.6154C22.1219 13.4936 22.1963 13.383 22.29 13.29C22.4774 13.1038 22.7308 12.9992 22.995 12.9992C23.2592 12.9992 23.5126 13.1038 23.7 13.29L27.7 17.29C27.7937 17.383 27.8681 17.4936 27.9189 17.6154C27.9697 17.7373 27.9958 17.868 27.9958 18C27.9958 18.132 27.9697 18.2627 27.9189 18.3846C27.8681 18.5064 27.7937 18.617 27.7 18.71Z" fill="#125576"/>
</svg>
