<svg width="23" height="19" viewBox="0 0 23 19" fill="none" xmlns="http://www.w3.org/2000/svg">
<path d="M13.7495 3.95244L7.90863 1.59823C5.20683 0.509255 3.85594 -0.0352332 3.08667 0.00176694C1.28761 0.0882981 -0.0933324 1.50412 0.00493577 3.16133C0.0469544 3.86994 0.778525 5.0494 2.24167 7.40831L2.24168 7.40833C2.57433 7.94465 2.74066 8.21281 2.8416 8.48754C3.07081 9.11139 3.07081 9.7874 2.8416 10.4113C2.74066 10.686 2.57433 10.9541 2.24167 11.4905L2.24167 11.4905C0.778525 13.8494 0.0469544 15.0288 0.00493577 15.7375C-0.0933324 17.3947 1.28761 18.8105 3.08667 18.897C3.85594 18.934 5.20684 18.3895 7.90864 17.3005L13.7495 14.9463C19.5963 12.5897 22.5197 11.4114 22.5197 9.44939C22.5197 7.48735 19.5963 6.30905 13.7495 3.95244Z" fill="#0283a2"/>
</svg>
